<svg width="24" height="25" viewBox="0 0 24 25" fill="none" xmlns="http://www.w3.org/2000/svg">
<path d="M3.27971 13.6878C3.39206 11.8901 3.47326 10.6151 3.66153 9.65035C3.84566 8.70679 4.11454 8.16399 4.53252 7.77132C4.9505 7.37865 5.50901 7.14415 6.46222 7.01924C7.43684 6.89152 8.71443 6.89001 10.5156 6.89001H13.4844C15.2855 6.89001 16.5631 6.89152 17.5378 7.01924C18.491 7.14415 19.0495 7.37865 19.4675 7.77132C19.8854 8.16399 20.1543 8.70679 20.3385 9.65035C20.5267 10.6151 20.6079 11.8901 20.7203 13.6878C20.8461 15.7018 20.9341 17.1351 20.8529 18.2254C20.7734 19.2941 20.5379 19.9108 20.1109 20.3653C19.6839 20.8198 19.0831 21.0933 18.0215 21.2393C16.9384 21.3883 15.5024 21.39 13.4844 21.39H10.5156C8.49762 21.39 7.06161 21.3883 5.97848 21.2393C4.91685 21.0933 4.31606 20.8198 3.8891 20.3653C3.46213 19.9108 3.22657 19.2941 3.14705 18.2254C3.06592 17.1351 3.15383 15.7018 3.27971 13.6878Z" stroke="#E78C04" stroke-width="1.5"/>
<path fill-rule="evenodd" clip-rule="evenodd" d="M7.85158 9.14001C8.38955 9.14001 8.73211 8.50711 8.60267 7.98494C8.53559 7.71435 8.5 7.43134 8.5 7.14001C8.5 5.20701 10.067 3.64001 12 3.64001C13.933 3.64001 15.5 5.20701 15.5 7.14001C15.5 7.43134 15.4644 7.71435 15.3973 7.98494C15.2679 8.50711 15.6105 9.14001 16.1484 9.14001C16.413 9.14001 16.6563 8.98455 16.7406 8.73378C16.9088 8.23321 17 7.69726 17 7.14001C17 4.37859 14.7614 2.14001 12 2.14001C9.23858 2.14001 7 4.37859 7 7.14001C7 7.69726 7.09116 8.23321 7.25938 8.73378C7.34365 8.98455 7.58703 9.14001 7.85158 9.14001Z" fill="#E78C04"/>
<path d="M8.5 13.14C8.77614 13.14 9 12.9162 9 12.64C9 12.3639 8.77614 12.14 8.5 12.14C8.22386 12.14 8 12.3639 8 12.64C8 12.9162 8.22386 13.14 8.5 13.14Z" stroke="#E78C04"/>
<path d="M15.5 13.14C15.7761 13.14 16 12.9162 16 12.64C16 12.3639 15.7761 12.14 15.5 12.14C15.2239 12.14 15 12.3639 15 12.64C15 12.9162 15.2239 13.14 15.5 13.14Z" stroke="#E78C04"/>
</svg>
