<svg width="24" height="25" viewBox="0 0 24 25" fill="none" xmlns="http://www.w3.org/2000/svg">
<path d="M3 12.14C3 8.39028 3 6.51541 3.95491 5.20108C4.26331 4.77661 4.6366 4.40332 5.06107 4.09492C6.3754 3.14001 8.25027 3.14001 12 3.14001C15.7497 3.14001 17.6246 3.14001 18.9389 4.09492C19.3634 4.40332 19.7367 4.77661 20.0451 5.20108C21 6.51541 21 8.39028 21 12.14C21 15.8897 21 17.7646 20.0451 19.0789C19.7367 19.5034 19.3634 19.8767 18.9389 20.1851C17.6246 21.14 15.7497 21.14 12 21.14H3V12.14Z" stroke="#E78C04" stroke-width="1.5" stroke-linejoin="round"/>
<path d="M7.75 14.39H13.25" stroke="#E78C04" stroke-width="1.5" stroke-linecap="round"/>
<path d="M7.75 10.39H16.25" stroke="#E78C04" stroke-width="1.5" stroke-linecap="round"/>
</svg>
