<svg width="12" height="11" viewBox="0 0 12 11" fill="none" xmlns="http://www.w3.org/2000/svg">
<path d="M4.98708 0.927049C5.28644 0.00573826 6.58985 0.00573993 6.8892 0.927051L7.50974 2.83688C7.64361 3.2489 8.02757 3.52786 8.4608 3.52786H10.4689C11.4376 3.52786 11.8404 4.76748 11.0567 5.33688L9.4321 6.51722C9.08161 6.77187 8.93495 7.22323 9.06882 7.63525L9.68937 9.54508C9.98872 10.4664 8.93424 11.2325 8.15052 10.6631L6.52593 9.48278C6.17544 9.22813 5.70084 9.22814 5.35036 9.48278L3.72576 10.6631C2.94204 11.2325 1.88756 10.4664 2.18692 9.54508L2.80746 7.63526C2.94133 7.22323 2.79467 6.77186 2.44419 6.51722L0.819586 5.33688C0.035872 4.76748 0.438649 3.52786 1.40737 3.52786H3.41549C3.84871 3.52786 4.23267 3.2489 4.36654 2.83688L4.98708 0.927049Z" fill="#F5D918"/>
</svg>
