<svg width="24" height="25" viewBox="0 0 24 25" fill="none" xmlns="http://www.w3.org/2000/svg">
<path d="M11.1169 3.80284C11.4929 3.09493 12.5073 3.09493 12.8833 3.80284L14.8393 7.48569C14.9838 7.75784 15.2458 7.94814 15.5493 8.00151L19.6563 8.72375C20.4458 8.86257 20.7592 9.82728 20.2021 10.4036L17.304 13.402C17.0898 13.6235 16.9898 13.9315 17.0328 14.2366L17.6151 18.3658C17.727 19.1595 16.9063 19.7557 16.1861 19.404L12.4389 17.5743C12.162 17.439 11.8382 17.439 11.5613 17.5743L7.81412 19.404C7.09384 19.7557 6.27321 19.1595 6.38513 18.3658L6.96739 14.2366C7.01042 13.9315 6.91037 13.6235 6.69621 13.402L3.79806 10.4036C3.24098 9.82728 3.55444 8.86257 4.34389 8.72375L8.45093 8.00151C8.75442 7.94814 9.01636 7.75783 9.1609 7.48569L11.1169 3.80284Z" stroke="#E78C04" stroke-width="1.5"/>
</svg>
